<svg width="30" height="30" viewBox="0 0 30 30" fill="none" xmlns="http://www.w3.org/2000/svg">
<mask id="mask0_5_11" style="mask-type:alpha" maskUnits="userSpaceOnUse" x="5" y="2" width="20" height="26">
<path fill-rule="evenodd" clip-rule="evenodd" d="M19.362 4.33059C18.1899 3.15847 16.6002 2.5 14.9426 2.5H11.25C7.79822 2.5 5 5.29822 5 8.75V21.25C5 24.7017 7.79822 27.5 11.25 27.5H18.75C22.2017 27.5 25 24.7017 25 21.25V12.5574C25 10.8998 24.3415 9.31009 23.1694 8.13799L19.362 4.33059Z" fill="white"/>
</mask>
<g mask="url(#mask0_5_11)">
<path d="M23.1694 8.13799L24.4953 6.81216L23.1694 8.13799ZM19.362 4.33059L18.0363 5.65641L19.362 4.33059ZM11.25 4.375H14.9426V0.625H11.25V4.375ZM6.875 8.75C6.875 6.33375 8.83375 4.375 11.25 4.375V0.625C6.76269 0.625 3.125 4.26269 3.125 8.75H6.875ZM6.875 21.25V8.75H3.125V21.25H6.875ZM11.25 25.625C8.83375 25.625 6.875 23.6663 6.875 21.25H3.125C3.125 25.7373 6.76269 29.375 11.25 29.375V25.625ZM18.75 25.625H11.25V29.375H18.75V25.625ZM23.125 21.25C23.125 23.6663 21.1663 25.625 18.75 25.625V29.375C23.2372 29.375 26.875 25.7373 26.875 21.25H23.125ZM23.125 12.5574V21.25H26.875V12.5574H23.125ZM24.4953 6.81216L20.6879 3.00476L18.0363 5.65641L21.8436 9.46381L24.4953 6.81216ZM26.875 12.5574C26.875 10.4025 26.019 8.33589 24.4953 6.81216L21.8436 9.46381C22.664 10.2843 23.125 11.3971 23.125 12.5574H26.875ZM14.9426 4.375C16.1029 4.375 17.2157 4.83594 18.0363 5.65641L20.6879 3.00476C19.1641 1.48103 17.0975 0.625 14.9426 0.625V4.375Z" fill="white"/>
<path d="M12.5 17.5H17.5M15 15V20V15Z" stroke="white" stroke-width="1.5" stroke-linecap="round"/>
<path d="M16.875 3.125V6.875C16.875 8.94606 18.5539 10.625 20.625 10.625H23.75" stroke="white" stroke-width="1.5"/>
</g>
</svg>
